<svg xmlns="http://www.w3.org/2000/svg" viewBox="0 0 32 32" width="32" height="32">
  <defs>
    <linearGradient id="g" x1="0" y1="0" x2="1" y2="1">
      <stop offset="0%" stop-color="#FF2D78"/>
      <stop offset="100%" stop-color="#6C5CE7"/>
    </linearGradient>
  </defs>
  <!-- Background -->
  <rect width="32" height="32" rx="8" fill="#0A0A14"/>
  <!-- Chat bubble -->
  <path d="M6 8c0-1.5 1.2-2.7 2.7-2.7h14.6c1.5 0 2.7 1.2 2.7 2.7v11c0 1.5-1.2 2.7-2.7 2.7H12l-4.5 4.3c-.4.4-1 .1-1-.4v-3.9c-.3 0-.5-.1-.8-.3-.5-.5-.7-1.1-.7-1.7V8z" fill="rgba(255,45,120,0.12)" stroke="url(#g)" stroke-width="1.5"/>
  <!-- Magnifying glass circle -->
  <circle cx="15" cy="13" r="5" fill="none" stroke="#fff" stroke-width="1.8"/>
  <!-- Magnifying glass handle -->
  <line x1="18.8" y1="16.8" x2="22.5" y2="20.5" stroke="#fff" stroke-width="2" stroke-linecap="round"/>
  <!-- Shine dot -->
  <circle cx="12.8" cy="10.8" r="1.2" fill="rgba(255,255,255,0.5)"/>
</svg>
